<svg width="552" height="781" viewBox="0 0 552 781" fill="none" xmlns="http://www.w3.org/2000/svg">
<path fill-rule="evenodd" clip-rule="evenodd" d="M255.75 0.094398C242.785 1.1659 232.996 2.4679 222.222 4.5549C215.779 5.8029 202.868 8.85389 200.25 9.74689C199.562 9.98139 197.988 10.4574 196.75 10.8039C189.36 12.8749 174.242 18.2784 167.54 21.2444C166.418 21.7409 164.712 22.4604 163.75 22.8434C159.286 24.6189 140.788 34.1384 134.495 37.8989C113.824 50.2514 97.6195 62.9124 80.246 80.2854C62.873 97.6589 50.212 113.863 37.8595 134.534C34.099 140.827 24.5795 159.325 22.804 163.789C22.421 164.752 21.7015 166.457 21.205 167.58C18.239 174.281 12.8355 189.399 10.7645 196.789C10.418 198.027 9.942 199.602 9.7075 200.289C7.799 205.885 3.8555 224.553 2.2675 235.511C0.226502 249.593 0 253.617 0 275.789C0 297.962 0.226502 301.986 2.2675 316.067C3.8555 327.026 7.799 345.694 9.7075 351.289C9.942 351.977 10.418 353.552 10.7645 354.789C12.8355 362.179 18.239 377.297 21.205 383.999C21.7015 385.121 22.421 386.827 22.804 387.789C23.187 388.752 25.789 394.152 28.5865 399.789C36.0985 414.926 44.15 428.022 54.562 442.039C66.8345 458.561 78.63 479.172 88.0415 500.539C88.4045 501.364 89.3945 503.839 90.241 506.039C91.0875 508.239 91.9735 510.489 92.21 511.039C94.266 515.821 97.8405 526.642 100.302 535.539C100.53 536.364 101.065 538.277 101.49 539.789C105.002 552.294 108.822 574.989 109.991 590.289C110.577 597.955 113.5 608.39 116.919 615.021C120.906 622.753 128.292 631.127 135.819 636.45C140.027 639.426 148.389 643.421 153.25 644.777C162.539 647.37 158.326 647.283 275.75 647.283C393.174 647.283 388.961 647.37 398.25 644.777C403.111 643.421 411.473 639.426 415.681 636.45C423.209 631.127 430.594 622.753 434.581 615.021C438 608.39 440.923 597.955 441.509 590.289C442.678 574.989 446.499 552.294 450.01 539.789C450.435 538.277 450.97 536.364 451.198 535.539C453.66 526.642 457.234 515.821 459.29 511.039C459.526 510.489 460.412 508.239 461.259 506.039C462.105 503.839 463.095 501.364 463.458 500.539C472.781 479.373 484.178 459.396 496.003 443.493C501.579 435.994 508.571 425.505 513.638 417.039C517.396 410.759 526.912 392.273 528.696 387.789C529.079 386.827 529.798 385.121 530.295 383.999C533.261 377.297 538.664 362.179 540.735 354.789C541.082 353.552 541.558 351.977 541.792 351.289C543.701 345.694 547.644 327.026 549.232 316.067C551.273 301.986 551.5 297.962 551.5 275.789C551.5 253.617 551.273 249.593 549.232 235.511C547.644 224.553 543.701 205.885 541.792 200.289C541.558 199.602 541.082 198.027 540.735 196.789C538.664 189.399 533.261 174.281 530.295 167.58C529.798 166.457 529.079 164.752 528.696 163.789C526.92 159.325 517.401 140.827 513.641 134.534C501.288 113.863 488.627 97.6589 471.254 80.2854C453.881 62.9124 437.676 50.2514 417.005 37.8989C410.712 34.1384 392.214 24.6189 387.75 22.8434C386.788 22.4604 385.082 21.7409 383.959 21.2444C377.258 18.2784 362.14 12.8749 354.75 10.8039C353.513 10.4574 351.938 9.98139 351.25 9.74689C346.136 8.00239 327.601 4.0189 317.631 2.5214C303.825 0.4479 299.595 0.178395 278.75 0.0433955C267.337 -0.0306045 256.987 -0.00760204 255.75 0.094398ZM264.75 52.5859C245.066 54.2884 232.803 56.2869 218.75 60.0819C211.666 61.9949 201.103 65.3714 198.424 66.5789C197.558 66.9699 196.599 67.2894 196.293 67.2894C195.987 67.2894 195.346 67.4959 194.868 67.7484C193.938 68.2409 192.035 69.0779 185.098 72.0474C174.07 76.7674 156.685 86.7754 145.944 94.5869C124.943 109.859 109.82 124.983 94.5475 145.983C86.736 156.724 76.728 174.109 72.008 185.137C69.0385 192.074 68.2015 193.977 67.709 194.907C67.4565 195.385 67.25 196.026 67.25 196.332C67.25 196.638 66.9305 197.597 66.5395 198.464C64.162 203.737 59.0505 221.457 56.9985 231.539C53.8125 247.192 52.5335 259.868 52.5335 275.789C52.5335 291.711 53.8125 304.387 56.9985 320.039C59.0505 330.122 64.162 347.841 66.5395 353.115C66.9305 353.981 67.25 354.941 67.25 355.247C67.25 355.553 67.4565 356.194 67.709 356.671C68.2015 357.602 69.0385 359.504 72.008 366.442C75.672 375.002 84.2415 390.531 90.284 399.56C91.58 401.497 94.6415 405.772 97.088 409.06C102.487 416.318 113.285 432.761 118.253 441.289C122.178 448.028 130.363 463.902 133.465 470.789C135.398 475.082 138.035 481.334 139.317 484.664C139.555 485.283 139.945 486.296 140.183 486.914C141.012 489.066 141.617 490.551 142.431 492.431C142.882 493.472 143.251 494.597 143.253 494.931C143.255 495.266 143.564 496.129 143.94 496.851C144.62 498.154 147.468 506.658 149.946 514.789C155.353 532.525 160.005 556.633 162.464 579.653C163.435 588.749 164.589 590.933 170 593.931L172 595.039L212.625 595.191L253.25 595.343V487.316C253.25 407.05 253.104 379.289 252.682 379.289C250.94 379.289 238.714 382.126 234 383.624C224.464 386.654 217.156 390.165 208.75 395.756C203.481 399.259 199.941 400.259 192.73 400.277C184.361 400.298 179.247 398.285 173.724 392.796C169.046 388.146 167.287 383.922 167.262 377.273C167.249 373.707 167.684 371.922 170.668 363.289C173.052 356.39 174.501 349.607 175.499 340.674C176.434 332.3 176.434 327.27 175.495 318.867C174.039 305.832 171.368 296.023 166.538 285.969C163.402 279.443 160.944 275.696 156.162 270.152C154.246 267.931 152.075 264.972 151.339 263.577C150.133 261.291 150 260.517 150 255.789C150 251.072 150.139 250.255 151.378 247.735C153.101 244.225 157.338 240.161 161.124 238.387C163.785 237.14 164.486 237.039 170.5 237.039C176.604 237.039 177.189 237.127 180.112 238.477C182.477 239.569 184.283 241.009 187.633 244.477C202.47 259.83 212.122 280.76 216.296 306.634C217.486 314.018 218.129 335.791 217.389 343.696C217.006 347.792 217.047 348.326 217.727 348.128C218.152 348.004 220.469 347.322 222.875 346.612C227.533 345.238 241.63 342.343 248.862 341.276L253.225 340.632L253.362 265.586L253.5 190.539L254.666 187.308C256.287 182.816 257.78 180.437 261.046 177.146C265.965 172.187 272.35 170.078 279.072 171.192C283.607 171.943 287.111 173.776 290.454 177.146C293.719 180.437 295.212 182.816 296.834 187.308L298 190.539L298.138 265.569L298.275 340.599L302.888 341.253C309.982 342.26 324.253 345.175 329.125 346.612C331.531 347.322 333.848 348.004 334.273 348.128C334.953 348.326 334.995 347.792 334.611 343.696C333.871 335.791 334.514 314.018 335.705 306.634C339.879 280.76 349.53 259.83 364.367 244.477C367.717 241.009 369.523 239.569 371.888 238.477C374.81 237.127 375.396 237.039 381.5 237.039C387.514 237.039 388.215 237.14 390.877 238.387C394.663 240.161 398.899 244.225 400.622 247.735C401.861 250.255 402 251.072 402 255.789C402 260.517 401.867 261.291 400.661 263.577C399.924 264.972 397.754 267.931 395.838 270.152C391.056 275.696 388.597 279.443 385.462 285.969C380.632 296.023 377.961 305.832 376.505 318.867C375.566 327.27 375.565 332.3 376.501 340.674C377.499 349.607 378.948 356.39 381.333 363.289C384.317 371.922 384.751 373.707 384.738 377.273C384.713 383.922 382.954 388.146 378.276 392.796C372.753 398.285 367.639 400.298 359.27 400.277C352.059 400.259 348.519 399.259 343.25 395.756C334.844 390.165 327.536 386.654 318 383.624C312.964 382.024 301.021 379.289 299.068 379.289C298.314 379.289 298.25 387.654 298.25 487.316V595.343L338.875 595.191L379.5 595.039L381.5 593.931C384.345 592.356 385.453 591.334 386.956 588.903C388.074 587.094 388.392 585.682 389.036 579.653C391.495 556.633 396.148 532.525 401.554 514.789C404.033 506.658 406.88 498.154 407.56 496.851C407.936 496.129 408.245 495.266 408.247 494.931C408.249 494.597 408.619 493.472 409.07 492.431C409.52 491.391 410.083 490.033 410.32 489.414C411.355 486.709 411.649 485.96 412.183 484.664C412.495 483.908 412.951 482.783 413.196 482.164C417.755 470.671 426.368 453.108 433.242 441.289C438.04 433.038 447.515 418.705 455.598 407.468C465.159 394.177 474.445 378.234 479.492 366.442C482.462 359.504 483.299 357.602 483.791 356.671C484.044 356.194 484.25 355.553 484.25 355.247C484.25 354.941 484.57 353.981 484.961 353.115C487.338 347.841 492.45 330.122 494.502 320.039C497.688 304.387 498.966 291.711 498.966 275.789C498.966 259.868 497.688 247.192 494.502 231.539C492.45 221.457 487.338 203.737 484.961 198.464C484.57 197.597 484.25 196.638 484.25 196.332C484.25 196.026 484.044 195.385 483.791 194.907C483.299 193.977 482.462 192.074 479.492 185.137C474.772 174.109 464.764 156.724 456.953 145.983C441.68 124.983 426.557 109.859 405.556 94.5869C394.815 86.7754 377.43 76.7674 366.403 72.0474C359.465 69.0779 357.563 68.2409 356.632 67.7484C356.155 67.4959 355.514 67.2894 355.208 67.2894C354.902 67.2894 353.942 66.9699 353.076 66.5789C350.397 65.3714 339.834 61.9949 332.75 60.0819C321.448 57.0299 311.18 55.1394 297.009 53.5014C290.786 52.7819 269.474 52.1774 264.75 52.5859ZM145.75 662.358C133.085 664.439 124.75 674.632 124.75 688.039C124.75 700.129 131.89 710.149 142.611 713.105C145.881 714.006 150.577 714.039 275.75 714.039C400.922 714.039 405.62 714.006 408.89 713.105C419.61 710.149 426.75 700.129 426.75 688.039C426.75 674.382 418.408 664.4 405.25 662.312C401.111 661.656 149.755 661.7 145.75 662.358ZM194.25 729.073C184.553 731.173 176.726 739.023 174.726 748.656C173.861 752.823 174.36 760.342 175.741 763.959C179.162 772.919 186.658 778.912 196.164 780.287C198.192 780.58 229.393 780.769 275.75 780.769C322.107 780.769 353.308 780.58 355.336 780.287C364.842 778.912 372.338 772.919 375.76 763.959C377.141 760.342 377.639 752.823 376.774 748.656C374.749 738.904 366.918 731.136 357 729.045C351.888 727.967 199.236 727.993 194.25 729.073Z" fill="#DEBB01"/>
</svg>
